<svg width="137" height="32" viewBox="0 0 137 32" fill="none" xmlns="http://www.w3.org/2000/svg">
<g clip-path="url(#clip0_752_1682)">
<path d="M39.1211 9.90005H42.5513V23.7674H39.1211V9.90005ZM43.9192 18.5512C43.9192 15.1163 46.0563 13.0575 49.2621 13.0575C52.468 13.0575 54.6052 15.1163 54.6052 18.5512C54.6052 21.9859 52.5428 24.0661 49.2621 24.0661C45.9816 24.0661 43.9192 22.0606 43.9192 18.5512ZM51.2071 18.5512C51.2071 16.6631 50.4697 15.5537 49.2942 15.5537C48.1187 15.5537 47.3921 16.6204 47.3921 18.5512C47.3921 20.4819 48.1187 21.5379 49.2942 21.5379C50.4697 21.5379 51.2284 20.4819 51.2284 18.5618L51.2071 18.5512ZM55.973 24.4821H59.2857C59.4366 24.8382 59.7 25.1351 60.0357 25.3277C60.3714 25.5203 60.7611 25.598 61.1452 25.5488C62.4595 25.5488 63.1434 24.8448 63.1434 23.7994V21.8793H63.1541C62.8711 22.4772 62.4133 22.9755 61.8411 23.3087C61.2689 23.6419 60.609 23.7944 59.9483 23.746C57.4371 23.746 55.77 21.8366 55.77 18.5512C55.77 15.2656 57.3623 13.2175 60.0445 13.2175C60.7221 13.1813 61.3943 13.3558 61.9684 13.7169C62.5426 14.078 62.9904 14.6079 63.2503 15.2336H63.1541V13.3029H66.5523V23.6927C66.5523 26.1995 64.3296 27.7676 61.0596 27.7676C58.0889 27.7569 56.1868 26.4022 55.9944 24.4928L55.973 24.4821ZM63.1541 18.5512C63.1541 16.8764 62.3848 15.8203 61.1665 15.8203C59.9483 15.8203 59.2003 16.8871 59.2003 18.5512C59.2003 20.2152 59.9376 21.1966 61.1665 21.1966C62.3955 21.1966 63.1541 20.2899 63.1541 18.5512ZM67.9095 18.5512C67.9095 15.1163 70.0466 13.0575 73.2525 13.0575C76.4584 13.0575 78.5955 15.1163 78.5955 18.5512C78.5955 21.9859 76.5224 24.0661 73.2525 24.0661C69.9826 24.0661 67.9308 22.0606 67.9308 18.5512H67.9095ZM75.1974 18.5512C75.1974 16.6631 74.4493 15.5537 73.2845 15.5537C72.1197 15.5537 71.3824 16.6204 71.3824 18.5512C71.3824 20.4819 72.1091 21.5379 73.2845 21.5379C74.46 21.5379 75.2188 20.4819 75.2188 18.5618L75.1974 18.5512ZM79.9848 10.7747C79.9698 10.4259 80.0598 10.0807 80.243 9.78333C80.4264 9.48599 80.6946 9.2502 81.0131 9.10628C81.3318 8.96237 81.6862 8.91689 82.031 8.97567C82.3757 9.03453 82.695 9.19495 82.9476 9.43639C83.2003 9.67782 83.3747 9.98914 83.4486 10.3304C83.5225 10.6716 83.4925 11.0271 83.3623 11.3512C83.2322 11.6752 83.0078 11.9529 82.7182 12.1487C82.4286 12.3444 82.087 12.4492 81.7373 12.4495C81.5138 12.4552 81.2914 12.4165 81.0829 12.3357C80.8745 12.2548 80.6843 12.1335 80.5233 11.9787C80.3622 11.8238 80.2335 11.6387 80.1448 11.4339C80.056 11.229 80.0088 11.0086 80.0061 10.7854L79.9848 10.7747ZM79.9848 13.2922H83.4578V23.81H80.0381L79.9848 13.2922ZM95.9496 18.5512C95.9496 21.9753 94.4111 23.9594 91.793 23.9594C91.1227 24.0007 90.4557 23.8356 89.8823 23.4865C89.3088 23.1374 88.8574 22.6211 88.5871 22.0073H88.5231V27.1916H85.0924V13.3242H88.5012V15.2016H88.5661C88.8263 14.5758 89.2743 14.0453 89.8477 13.6826C90.4212 13.3199 91.0932 13.1427 91.7711 13.1749C94.4642 13.1535 96.0136 15.127 96.0136 18.5618L95.9496 18.5512ZM92.4557 18.5512C92.4557 16.8871 91.6751 15.8097 90.4675 15.8097C89.26 15.8097 88.5012 16.8764 88.4911 18.5512C88.4802 20.2259 89.26 21.2819 90.4675 21.2819C91.6751 21.2819 92.5197 20.2899 92.5197 18.5618L92.4557 18.5512ZM101.806 13.0468C104.681 13.0468 106.465 14.4016 106.486 16.5777H103.355C103.355 15.8203 102.725 15.351 101.785 15.351C100.844 15.351 100.395 15.7137 100.395 16.2577C100.395 16.8017 100.791 16.9724 101.582 17.1324L103.783 17.5804C105.92 18.0285 106.775 18.8819 106.775 20.4713C106.775 22.6046 104.798 24.0554 101.86 24.0554C98.9206 24.0554 97.0073 22.6473 96.8692 20.5033H100.192C100.288 21.2819 100.908 21.7406 101.913 21.7406C102.917 21.7406 103.387 21.4206 103.387 20.8552C103.387 20.2899 103.067 20.1939 102.244 20.0232L100.256 19.6072C98.1939 19.1699 97.1143 18.0925 97.1143 16.4817C97.1791 14.3909 98.9736 13.0575 101.87 13.0575L101.806 13.0468ZM118.262 23.7994H114.939V21.8259H114.875C114.689 22.4842 114.284 23.0595 113.726 23.457C113.169 23.8546 112.492 24.0505 111.808 24.0127C111.291 24.0296 110.777 23.9371 110.299 23.7416C109.821 23.5459 109.39 23.2516 109.033 22.8779C108.677 22.5042 108.404 22.0595 108.233 21.5731C108.06 21.0866 107.993 20.5694 108.036 20.0552V13.3029H111.466V19.3192C111.466 20.5566 112.118 21.2286 113.187 21.2286C113.438 21.2267 113.684 21.1712 113.912 21.0657C114.139 20.9602 114.341 20.8073 114.505 20.6172C114.667 20.427 114.788 20.2043 114.857 19.9638C114.926 19.7233 114.943 19.4707 114.907 19.2232V13.3029H118.327L118.262 23.7994ZM119.918 13.2922H123.253V15.319H123.327C123.512 14.6697 123.907 14.0997 124.45 13.6983C124.993 13.2968 125.655 13.0865 126.33 13.1002C127.009 13.0414 127.685 13.2371 128.227 13.6495C128.768 14.0618 129.136 14.6609 129.258 15.3296H129.408C129.621 14.6574 130.052 14.0743 130.632 13.6711C131.211 13.2679 131.908 13.0672 132.614 13.1002C133.083 13.0824 133.55 13.1636 133.986 13.3387C134.421 13.5137 134.815 13.7785 135.14 14.1159C135.466 14.4532 135.717 14.8554 135.876 15.2963C136.036 15.737 136.1 16.2064 136.066 16.6737V23.81H132.614V17.5484C132.614 16.4817 132.111 15.8843 131.14 15.8843C130.923 15.8808 130.709 15.9239 130.512 16.0106C130.315 16.0973 130.138 16.2256 129.995 16.3867C129.852 16.5478 129.746 16.7379 129.683 16.9439C129.62 17.15 129.604 17.3671 129.632 17.5804V23.81H126.362V17.5164C126.362 16.4497 125.838 15.8843 124.899 15.8843C124.681 15.8826 124.465 15.9274 124.265 16.0158C124.067 16.1042 123.888 16.234 123.744 16.3967C123.599 16.5594 123.491 16.7511 123.427 16.9589C123.362 17.1667 123.343 17.3859 123.37 17.6018V23.81H119.94L119.918 13.2922Z" fill="#14142B"/>
<path d="M32.3358 10.8061C32.3358 8.68294 31.6936 6.60932 30.4931 4.85677C29.2926 3.1042 27.5898 1.75444 25.6078 0.984264C23.6259 0.214087 21.457 0.0594109 19.3855 0.540493C17.314 1.02158 15.4363 2.11599 13.9983 3.68037H0.662109V31.7778H28.82V18.6465C29.9252 17.6597 30.8095 16.4514 31.4153 15.1005C32.0211 13.7495 32.3348 12.2862 32.3358 10.8061ZM26.9179 10.8061C26.92 11.8234 26.6197 12.8185 26.055 13.6655C25.4904 14.5124 24.6867 15.173 23.7457 15.5639C22.8047 15.9547 21.7687 16.058 20.7689 15.8608C19.769 15.6637 18.8503 15.1748 18.1289 14.4562C17.4074 13.7375 16.9158 12.8214 16.7162 11.8237C16.5167 10.8261 16.618 9.79174 17.0075 8.85162C17.3971 7.91147 18.0572 7.10783 18.9045 6.54239C19.7518 5.97696 20.748 5.67514 21.7672 5.67514C23.1314 5.67514 24.4398 6.21537 25.4055 7.1773C26.3711 8.13923 26.915 9.44429 26.9179 10.8061ZM23.4021 26.3695H6.07997V9.08867H11.3589C11.2569 9.65557 11.2033 10.2301 11.1986 10.8061C11.2014 13.6032 12.3158 16.285 14.2972 18.2628C16.2786 20.2407 18.9651 21.3531 21.7672 21.356C22.315 21.353 22.8617 21.3067 23.4021 21.2173V26.3695Z" fill="#14142B"/>
</g>
<defs>
<clipPath id="clip0_752_1682">
<rect width="136.421" height="32" fill="white"/>
</clipPath>
</defs>
</svg>
