<svg width="137" height="32" viewBox="0 0 137 32" fill="none" xmlns="http://www.w3.org/2000/svg">
<path d="M32.9824 7.80615H36.106V22.968H32.9824V7.80615Z" fill="#14142B"/>
<path d="M37.855 17.7737C37.855 16.6828 38.1764 15.6166 38.7784 14.71C39.3805 13.8035 40.236 13.0974 41.2367 12.6814C42.2374 12.2654 43.3381 12.1582 44.3993 12.3733C45.4605 12.5885 46.4344 13.1162 47.1977 13.8898C47.9609 14.6633 48.4791 15.6478 48.6864 16.7184C48.8938 17.7891 48.7811 18.8976 48.3626 19.9037C47.944 20.9097 47.2385 21.7678 46.3355 22.3693C45.4324 22.9708 44.3726 23.2886 43.2901 23.2824C42.5721 23.288 41.8603 23.1491 41.1963 22.8739C40.5323 22.5987 39.9295 22.1926 39.4232 21.6796C38.9171 21.1665 38.5176 20.5567 38.2483 19.886C37.979 19.2153 37.8452 18.4971 37.855 17.7737ZM45.6849 17.7737C45.6726 17.3035 45.523 16.8473 45.2548 16.4622C44.9866 16.0771 44.6117 15.7803 44.177 15.6089C43.7422 15.4374 43.267 15.399 42.8106 15.4982C42.3544 15.5975 41.9372 15.8302 41.6115 16.1671C41.2856 16.5041 41.0657 16.9304 40.979 17.3926C40.8924 17.8548 40.9429 18.3326 41.1242 18.7661C41.3057 19.1996 41.6098 19.5696 41.9987 19.8297C42.3877 20.09 42.844 20.2288 43.3109 20.229C43.6288 20.2352 43.9444 20.1753 44.2383 20.0531C44.5321 19.9307 44.7978 19.7488 45.0186 19.5183C45.2394 19.2879 45.4108 19.014 45.5218 18.7138C45.6329 18.4136 45.6813 18.0936 45.6641 17.7737H45.6849Z" fill="#14142B"/>
<path d="M61.0837 12.5802V22.4538C61.0837 25.9374 58.3765 27.4168 55.6381 27.4168C54.6722 27.4967 53.7034 27.3033 52.8406 26.8585C51.9779 26.4135 51.2556 25.7348 50.7548 24.8986L53.3891 23.3667C53.6026 23.8004 53.9421 24.1582 54.3625 24.3926C54.7829 24.6269 55.2642 24.7265 55.7422 24.6783C56.0467 24.716 56.3558 24.6856 56.6472 24.589C56.9388 24.4924 57.2054 24.3322 57.4283 24.1196C57.6511 23.9071 57.8246 23.6476 57.9363 23.3596C58.048 23.0716 58.0953 22.7623 58.0745 22.4538V21.499C57.711 21.9431 57.2498 22.2958 56.7275 22.5289C56.2051 22.762 55.636 22.8692 55.0654 22.8421C53.6847 22.8421 52.3605 22.2893 51.3842 21.3054C50.4079 20.3215 49.8594 18.9871 49.8594 17.5957C49.8594 16.2043 50.4079 14.8699 51.3842 13.886C52.3605 12.9021 53.6847 12.3493 55.0654 12.3493C55.636 12.3222 56.2051 12.4294 56.7275 12.6625C57.2498 12.8956 57.711 13.2483 58.0745 13.6924V12.6432L61.0837 12.5802ZM58.0745 17.5642C58.0953 17.0622 57.9666 16.5655 57.705 16.1377C57.4433 15.7101 57.0607 15.371 56.6063 15.1642C56.1519 14.9574 55.6465 14.8924 55.155 14.9774C54.6637 15.0624 54.2087 15.2935 53.8488 15.6412C53.4888 15.9888 53.2403 16.437 53.1351 16.9281C53.0299 17.4193 53.073 17.9309 53.2587 18.3972C53.4444 18.8635 53.7642 19.2631 54.1771 19.5447C54.59 19.8263 55.077 19.9771 55.5756 19.9776C55.901 20.0011 56.2276 19.9557 56.5344 19.8442C56.8413 19.7327 57.1215 19.5576 57.357 19.3302C57.5925 19.1027 57.778 18.8281 57.9016 18.5239C58.0252 18.2197 58.0841 17.8928 58.0745 17.5642Z" fill="#14142B"/>
<path d="M62.8441 17.7738C62.8441 16.6838 63.1649 15.6184 63.766 14.7123C64.3671 13.8061 65.2216 13.1001 66.2209 12.6835C67.2204 12.2668 68.3201 12.1583 69.3807 12.3718C70.4413 12.5852 71.4153 13.1109 72.1794 13.8823C72.9435 14.6538 73.4633 15.6363 73.673 16.7055C73.8828 17.7748 73.773 18.8827 73.3577 19.8891C72.9423 20.8955 72.2401 21.7551 71.3398 22.3591C70.4395 22.9632 69.3816 23.2845 68.3 23.2825C67.5807 23.2894 66.8672 23.1517 66.2015 22.8772C65.5357 22.6027 64.931 22.1971 64.4229 21.684C63.9146 21.1709 63.5132 20.5608 63.2421 19.8893C62.971 19.2179 62.8357 18.4986 62.8441 17.7738ZM70.674 17.7738C70.6617 17.303 70.5118 16.8464 70.2432 16.4612C69.9745 16.076 69.5989 15.7791 69.1636 15.608C68.7283 15.4369 68.2525 15.399 67.796 15.4991C67.3394 15.5993 66.9223 15.833 66.5969 16.171C66.2716 16.509 66.0524 16.9362 65.967 17.3991C65.8815 17.8621 65.9335 18.3402 66.1164 18.7735C66.2994 19.2067 66.6052 19.576 66.9954 19.8349C67.3857 20.0939 67.8432 20.231 68.3105 20.2291C68.6283 20.2353 68.944 20.1754 69.2378 20.0532C69.5316 19.9308 69.7973 19.7488 70.0181 19.5183C70.239 19.2879 70.4103 19.0141 70.5213 18.7139C70.6324 18.4137 70.6808 18.0937 70.6636 17.7738H70.674Z" fill="#14142B"/>
<path d="M75.2031 9.79954C75.2031 9.43015 75.3118 9.06912 75.5155 8.76192C75.7191 8.4548 76.0086 8.21538 76.3473 8.07405C76.6859 7.9327 77.0586 7.89571 77.418 7.96777C77.7776 8.03984 78.1078 8.21776 78.367 8.47893C78.6262 8.7401 78.8027 9.0729 78.8743 9.43524C78.9457 9.79749 78.9091 10.173 78.7688 10.5143C78.6284 10.8556 78.3909 11.1473 78.0862 11.3525C77.7813 11.5577 77.423 11.6673 77.0565 11.6673C76.5667 11.6619 76.0984 11.4633 75.752 11.1142C75.4055 10.7651 75.2085 10.2932 75.2031 9.79954ZM75.5051 12.5802H78.6287V22.9679H75.5051V12.5802Z" fill="#14142B"/>
<path d="M91.998 17.7736C92.0333 18.4644 91.9324 19.1555 91.701 19.8068C91.4705 20.4582 91.1135 21.0572 90.6516 21.5691C90.1905 22.0811 89.6325 22.496 89.0114 22.79C88.3903 23.0841 87.7174 23.2513 87.0315 23.2822C86.4497 23.3213 85.8664 23.2273 85.3256 23.0075C84.7849 22.7876 84.3 22.4476 83.9078 22.0127V27.1436H80.7842V12.5797H83.9078V13.5555C84.3008 13.1219 84.7857 12.7834 85.3265 12.5653C85.8672 12.3473 86.4506 12.2554 87.0315 12.2964C87.7141 12.3274 88.3845 12.4936 89.004 12.7857C89.6235 13.0778 90.179 13.4898 90.6401 13.9985C91.1012 14.507 91.459 15.1022 91.692 15.7499C91.925 16.3977 92.0284 17.0853 91.998 17.7736ZM88.8744 17.7736C88.862 17.2863 88.707 16.8134 88.4296 16.4144C88.1515 16.0153 87.7634 15.7078 87.3129 15.5303C86.8616 15.3528 86.3693 15.3132 85.8967 15.4166C85.4241 15.52 84.9917 15.7617 84.6553 16.1114C84.318 16.4612 84.0908 16.9034 84.0021 17.3826C83.9135 17.8618 83.9669 18.3568 84.1564 18.8054C84.3459 19.254 84.6618 19.6364 85.0664 19.9046C85.47 20.1727 85.9435 20.3147 86.4276 20.3128C86.7591 20.327 87.0897 20.2704 87.3974 20.1468C87.7059 20.0232 87.9841 19.8353 88.2155 19.5956C88.4469 19.3558 88.6249 19.0696 88.7381 18.7555C88.8514 18.4416 88.8981 18.1069 88.8744 17.7736Z" fill="#14142B"/>
<path d="M101.504 19.8517C101.504 22.2441 99.4212 23.2619 97.214 23.2619C96.3139 23.3435 95.4097 23.1512 94.6187 22.7098C93.8286 22.2683 93.1869 21.5981 92.7783 20.7856L95.4647 19.2537C95.5713 19.6281 95.8019 19.9543 96.1186 20.1777C96.4353 20.4012 96.8177 20.5084 97.2034 20.4813C97.9426 20.4813 98.3176 20.2505 98.3176 19.8307C98.3176 18.6871 93.2468 19.2957 93.2468 15.6967C93.2468 13.4302 95.1422 12.297 97.287 12.297C98.1026 12.2603 98.9125 12.4466 99.6313 12.8364C100.349 13.2263 100.95 13.8049 101.368 14.511L98.6819 15.938C98.5638 15.6673 98.3693 15.4371 98.124 15.275C97.8778 15.113 97.5906 15.0262 97.2977 15.0252C96.7562 15.0252 96.4329 15.235 96.4329 15.6022C96.4329 16.7984 101.504 16.0114 101.504 19.8517Z" fill="#14142B"/>
<path d="M112.822 12.5801V22.9679H109.698V21.992C109.343 22.4239 108.892 22.7658 108.382 22.99C107.872 23.2142 107.317 23.3144 106.761 23.2826C104.679 23.2826 102.898 21.7822 102.898 18.9807V12.5801H106.022V18.5084C105.998 18.7563 106.027 19.0066 106.107 19.242C106.189 19.4774 106.319 19.6923 106.49 19.8718C106.661 20.0514 106.87 20.1914 107.099 20.2821C107.33 20.3728 107.577 20.412 107.823 20.3971C108.948 20.3971 109.739 19.7256 109.739 18.2986V12.5801H112.822Z" fill="#14142B"/>
<path d="M130.522 16.5883V22.9679H127.398V16.8612C127.398 15.8119 126.908 15.1614 125.92 15.1614C124.93 15.1614 124.306 15.8853 124.306 17.113V22.9679H121.182V16.8612C121.182 15.8119 120.693 15.1614 119.703 15.1614C118.715 15.1614 118.09 15.8853 118.09 17.113V22.9679H114.966V12.5801H118.09V13.535C118.413 13.1131 118.835 12.7791 119.319 12.5629C119.803 12.3468 120.332 12.2553 120.86 12.2968C121.387 12.2691 121.914 12.3802 122.387 12.6193C122.859 12.8585 123.263 13.2174 123.556 13.6609C123.899 13.1976 124.353 12.8295 124.876 12.5909C125.399 12.3524 125.972 12.2512 126.544 12.2968C128.981 12.2968 130.522 13.9967 130.522 16.5883Z" fill="#14142B"/>
<path d="M14.3751 5.07804V0.618652H0.422852V31.2573H14.3751V26.7978C11.517 26.7978 8.7759 25.6537 6.75492 23.617C4.73393 21.5805 3.59854 18.8182 3.59854 15.9379C3.59854 13.0577 4.73393 10.2954 6.75492 8.25885C8.7759 6.2222 11.517 5.07804 14.3751 5.07804Z" fill="#14142B"/>
<path d="M14.376 5.07764V26.7974C17.2341 26.7974 19.9752 25.6533 21.9962 23.6166C24.0172 21.5801 25.1525 18.8178 25.1525 15.9375C25.1525 13.0573 24.0172 10.295 21.9962 8.25845C19.9752 6.2218 17.2341 5.07764 14.376 5.07764Z" fill="#14142B"/>
<path d="M133.146 12.5174C134.412 12.5174 135.437 11.4839 135.437 10.2091C135.437 8.93414 134.412 7.90063 133.146 7.90063C131.881 7.90063 130.855 8.93414 130.855 10.2091C130.855 11.4839 131.881 12.5174 133.146 12.5174Z" fill="#14142B"/>
</svg>
