<svg width="162" height="30" viewBox="0 0 162 30" fill="none" xmlns="http://www.w3.org/2000/svg">
<g clip-path="url(#clip0_752_1685)">
<path d="M24.7338 12.9819C24.2836 13.4009 23.9388 13.9066 23.724 14.463C23.5092 15.0194 23.4298 15.6128 23.4911 16.2009L23.4698 16.1811C23.5329 16.8733 23.432 17.5699 23.1741 18.2223C22.9163 18.8747 22.5076 19.4672 21.9766 19.9584C21.4457 20.4496 20.8052 20.8277 20.1 21.0663C19.3948 21.3049 18.6417 21.3982 17.8935 21.3398L17.9148 21.3596C17.0199 21.2825 16.1209 21.4626 15.3406 21.8755C14.5603 22.2884 13.9367 22.9139 13.5548 23.6666C13.1727 24.4195 13.051 25.2629 13.2062 26.082C13.3614 26.9011 13.7859 27.656 14.4218 28.2438C15.0577 28.8315 15.8741 29.2235 16.7596 29.3663C17.6452 29.5091 18.5568 29.3958 19.3702 29.0418C20.1836 28.6877 20.859 28.1102 21.3047 27.388C21.7502 26.6657 21.9442 25.834 21.8601 25.006L21.8827 25.0258C21.8195 24.3336 21.9204 23.637 22.1783 22.9845C22.4362 22.3321 22.8449 21.7396 23.3758 21.2485C23.9068 20.7573 24.5472 20.3792 25.2524 20.1406C25.9577 19.902 26.7107 19.8087 27.4589 19.8671L27.4364 19.8474C28.1675 19.9082 28.9034 19.7973 29.5758 19.5249C30.2483 19.2525 30.8356 18.8276 31.2832 18.2893C31.7308 17.7512 32.0244 17.1171 32.1367 16.446C32.249 15.7749 32.1762 15.0884 31.9253 14.4502C31.6745 13.812 31.2535 13.2427 30.7014 12.7951C30.1493 12.3475 29.4841 12.036 28.7673 11.8896C28.0505 11.7431 27.3052 11.7665 26.6008 11.9574C25.8963 12.1484 25.2554 12.5007 24.7373 12.9819H24.7338Z" fill="#14142B"/>
<path d="M15.9702 18.7682L15.9476 18.7484C16.5835 18.8076 17.2258 18.7355 17.8279 18.537C18.4299 18.3385 18.9769 18.0188 19.429 17.6007C19.8811 17.1828 20.2272 16.6771 20.4422 16.1203C20.6571 15.5635 20.7357 14.9694 20.6721 14.381L20.6947 14.4007C20.6315 13.7086 20.7324 13.0119 20.9903 12.3596C21.2482 11.7071 21.6569 11.1147 22.1879 10.6234C22.7188 10.1322 23.3593 9.75412 24.0645 9.51554C24.7697 9.27695 25.5227 9.1836 26.271 9.24208L26.2484 9.22229C27.1435 9.30003 28.0427 9.12044 28.8235 8.70808C29.6042 8.29565 30.2283 7.67048 30.6109 6.9178C30.9934 6.16514 31.1157 5.32163 30.9611 4.50231C30.8063 3.683 30.3821 2.92779 29.7465 2.33967C29.1107 1.75156 28.2944 1.35918 27.4088 1.21606C26.5231 1.07294 25.6113 1.18604 24.7978 1.53994C23.9841 1.89383 23.3083 2.4713 22.8626 3.19357C22.4168 3.91583 22.2227 4.74773 22.3067 5.57581L22.2854 5.55493C22.3487 6.24718 22.248 6.94388 21.9901 7.59638C21.7323 8.24888 21.3236 8.84142 20.7926 9.33265C20.2617 9.82397 19.6211 10.2021 18.9158 10.4406C18.2105 10.6791 17.4573 10.7722 16.7091 10.7136L16.7305 10.7345C16.0945 10.6752 15.4522 10.7474 14.8502 10.9459C14.2481 11.1443 13.7012 11.4641 13.249 11.8821C12.797 12.3001 12.4508 12.8058 12.2359 13.3626C12.0209 13.9195 11.9423 14.5135 12.0059 15.1019L11.9846 15.0821C12.0475 15.7743 11.9465 16.4708 11.6885 17.1231C11.4305 17.7755 11.0218 18.3679 10.4909 18.859C9.96001 19.3502 9.31965 19.7283 8.61453 19.9669C7.90941 20.2056 7.15649 20.2991 6.4083 20.2408L6.42969 20.2606C5.53458 20.1829 4.63534 20.3625 3.85461 20.7748C3.07388 21.1873 2.44967 21.8124 2.06713 22.5651C1.68459 23.3178 1.56233 24.1613 1.71704 24.9806C1.87174 25.7999 2.29588 26.5551 2.9316 27.1432C3.56732 27.7314 4.38366 28.1237 5.26929 28.2669C6.15492 28.4099 7.06672 28.2969 7.88031 27.943C8.6939 27.5891 9.36969 27.0116 9.81545 26.2894C10.2613 25.5671 10.4554 24.7352 10.3713 23.9071L10.3939 23.9268C10.3307 23.2347 10.4316 22.538 10.6895 21.8857C10.9474 21.2332 11.3562 20.6408 11.8871 20.1495C12.4181 19.6583 13.0585 19.2802 13.7637 19.0416C14.4689 18.8031 15.2219 18.7098 15.9702 18.7682Z" fill="#14142B"/>
<path d="M8.00793 16.5625C8.4582 16.1435 8.80292 15.6378 9.01752 15.0813C9.23211 14.5248 9.31127 13.9315 9.24935 13.3434L9.27192 13.3632C9.20871 12.6708 9.30964 11.974 9.56764 11.3214C9.82571 10.6689 10.2347 10.0763 10.7659 9.58497C11.2971 9.09375 11.9378 8.71574 12.6433 8.4773C13.3489 8.23886 14.1021 8.14579 14.8506 8.20456L14.828 8.18478C15.7227 8.26232 16.6217 8.08265 17.402 7.67027C18.1824 7.25788 18.8063 6.63285 19.1886 5.88042C19.5709 5.12799 19.693 4.28478 19.5384 3.46577C19.3836 2.64677 18.9596 1.89185 18.3242 1.30395C17.6887 0.716053 16.8727 0.323799 15.9873 0.180683C15.102 0.0375679 14.1906 0.150557 13.3772 0.50424C12.5639 0.857924 11.8883 1.43508 11.4425 2.15702C10.9967 2.87895 10.8026 3.71051 10.8863 4.5383L10.865 4.51852C10.9281 5.21072 10.8272 5.90734 10.5693 6.55975C10.3115 7.21216 9.90279 7.80464 9.37179 8.29584C8.84083 8.78705 8.20038 9.16515 7.49516 9.40374C6.78995 9.64232 6.03694 9.73567 5.2887 9.6772L5.31009 9.69698C4.57898 9.63634 3.84316 9.74739 3.1708 10.0199C2.49843 10.2923 1.91129 10.7173 1.46378 11.2557C1.01626 11.7939 0.722853 12.428 0.610739 13.099C0.498625 13.7702 0.571433 14.4566 0.822419 15.0948C1.0734 15.7329 1.49444 16.3021 2.04653 16.7496C2.5986 17.1972 3.26386 17.5086 3.98065 17.6549C4.69743 17.8013 5.44255 17.7779 6.14696 17.5869C6.85138 17.3959 7.49229 17.0435 8.01031 16.5625H8.00793Z" fill="#14142B"/>
<path d="M44.8071 5.60107H48.3354V21.4849H44.8071V5.60107Z" fill="#14142B"/>
<path d="M50.3337 16.0464C50.3287 14.9049 50.6901 13.7878 51.372 12.8365C52.0539 11.8851 53.0256 11.1424 54.1642 10.7025C55.3027 10.2624 56.5567 10.1449 57.7676 10.3649C58.9783 10.5847 60.0913 11.1321 60.9655 11.9376C61.8397 12.7431 62.4359 13.7706 62.6784 14.8898C62.921 16.009 62.799 17.1696 62.3279 18.2246C61.8569 19.2797 61.058 20.1816 60.0324 20.8163C59.0068 21.4509 57.8007 21.7897 56.5669 21.7897C55.7478 21.7984 54.9351 21.6559 54.1763 21.3706C53.4174 21.0853 52.7277 20.663 52.1473 20.1282C51.567 19.5935 51.1077 18.9571 50.7963 18.2562C50.4848 17.5553 50.3276 16.8041 50.3337 16.0464ZM59.2718 16.0464C59.2572 15.5543 59.086 15.0773 58.7797 14.6747C58.4735 14.2722 58.0459 13.9621 57.5502 13.7833C57.0545 13.6044 56.5129 13.5646 55.9929 13.669C55.473 13.7734 54.9978 14.0172 54.6268 14.37C54.2558 14.7228 54.0056 15.169 53.9071 15.6527C53.8088 16.1365 53.8668 16.6363 54.0738 17.0897C54.2808 17.5431 54.6277 17.9301 55.0712 18.202C55.5146 18.474 56.0348 18.6192 56.5669 18.6191C56.9312 18.6281 57.2937 18.5672 57.6313 18.4401C57.969 18.3131 58.2745 18.1227 58.5286 17.881C58.7828 17.6392 58.98 17.3515 59.108 17.0357C59.2359 16.7199 59.2917 16.3831 59.2718 16.0464Z" fill="#14142B"/>
<path d="M76.862 10.606V20.9366C76.862 24.5919 73.7805 26.1371 70.6526 26.1371C69.5512 26.2133 68.4486 26.0075 67.4653 25.5422C66.4822 25.0769 65.6564 24.3702 65.0787 23.4994L68.0889 21.8894C68.3318 22.3433 68.7187 22.7178 69.1978 22.9626C69.677 23.2076 70.2256 23.3112 70.7702 23.2599C71.1183 23.3045 71.4727 23.2761 71.8073 23.1768C72.1419 23.0777 72.4482 22.9101 72.7033 22.6866C72.9585 22.4631 73.1561 22.1894 73.2815 21.8857C73.4069 21.582 73.4568 21.2561 73.4277 20.9321V19.9376C73.0145 20.4053 72.4887 20.7768 71.8922 21.0225C71.2958 21.2681 70.6454 21.3809 69.9933 21.352C68.4416 21.3068 66.9698 20.7047 65.8895 19.6732C64.8091 18.6418 64.2051 17.2619 64.2051 15.8257C64.2051 14.3895 64.8091 13.0096 65.8895 11.9781C66.9698 10.9467 68.4416 10.3446 69.9933 10.2993C70.6454 10.2705 71.2958 10.3833 71.8922 10.6289C72.4887 10.8746 73.0145 11.2461 73.4277 11.7138V10.6038L76.862 10.606ZM73.4289 15.8273C73.4526 15.3013 73.3056 14.7808 73.0068 14.3327C72.708 13.8846 72.2711 13.5295 71.7523 13.313C71.2335 13.0966 70.6566 13.0288 70.0957 13.1182C69.535 13.2077 69.0159 13.4503 68.6054 13.815C68.1949 14.1797 67.9118 14.6497 67.7925 15.1644C67.6732 15.6793 67.7231 16.2152 67.9359 16.7036C68.1487 17.1919 68.5145 17.6101 68.9864 17.9044C69.4583 18.1987 70.0146 18.3557 70.5837 18.3551C70.9544 18.3789 71.3264 18.3308 71.6758 18.2136C72.0251 18.0965 72.3441 17.9129 72.6121 17.6749C72.8802 17.4367 73.0913 17.1493 73.232 16.8311C73.3726 16.5129 73.4397 16.171 73.4289 15.8273Z" fill="#14142B"/>
<path d="M78.8605 16.0464C78.8556 14.9049 79.2169 13.7878 79.8989 12.8365C80.5808 11.8851 81.5526 11.1424 82.6911 10.7025C83.8296 10.2624 85.0837 10.1449 86.2944 10.3649C87.5052 10.5847 88.6182 11.1321 89.4924 11.9376C90.3667 12.7431 90.9628 13.7706 91.2054 14.8898C91.4479 16.009 91.3259 17.1696 90.8549 18.2246C90.3838 19.2797 89.5849 20.1816 88.5593 20.8163C87.5337 21.4509 86.3276 21.7897 85.0937 21.7897C84.2747 21.7984 83.462 21.6559 82.7032 21.3706C81.9444 21.0853 81.2546 20.663 80.6743 20.1282C80.0939 19.5935 79.6346 18.9571 79.3232 18.2562C79.0118 17.5553 78.8545 16.8041 78.8605 16.0464ZM87.7988 16.0464C87.784 15.5543 87.6129 15.0773 87.3066 14.6747C87.0005 14.2722 86.5728 13.9621 86.0771 13.7833C85.5815 13.6044 85.0397 13.5646 84.5198 13.669C83.9998 13.7734 83.5247 14.0172 83.1537 14.37C82.7828 14.7228 82.5324 15.169 82.4341 15.6527C82.3357 16.1365 82.3937 16.6363 82.6007 17.0897C82.8077 17.5431 83.1546 17.9301 83.598 18.202C84.0415 18.474 84.5617 18.6192 85.0937 18.6191C85.4582 18.6281 85.8206 18.5672 86.1582 18.4401C86.4959 18.3131 86.8014 18.1227 87.0555 17.881C87.3096 17.6392 87.5069 17.3515 87.6348 17.0357C87.7627 16.7199 87.8185 16.3831 87.7988 16.0464Z" fill="#14142B"/>
<path d="M92.9727 7.69011C92.9727 7.30277 93.0968 6.92413 93.3295 6.60208C93.562 6.28001 93.8927 6.02899 94.2798 5.88076C94.6666 5.73254 95.092 5.69376 95.5023 5.76932C95.9136 5.84489 96.2901 6.03141 96.5866 6.3053C96.8821 6.57919 97.0845 6.92814 97.1654 7.30804C97.2473 7.68793 97.2059 8.08171 97.0449 8.43955C96.8849 8.79744 96.6139 9.10327 96.2656 9.31843C95.9174 9.53368 95.508 9.64854 95.0892 9.64854C94.5301 9.64334 93.9947 9.43538 93.5988 9.06926C93.2031 8.70305 92.9782 8.20791 92.9727 7.69011ZM93.3291 10.6058H96.8586V21.4858H93.3243L93.3291 10.6058Z" fill="#14142B"/>
<path d="M112.092 16.0464C112.133 16.7655 112.02 17.4849 111.759 18.1632C111.498 18.8417 111.094 19.4658 110.572 19.9995C110.05 20.5332 109.418 20.9662 108.715 21.2734C108.011 21.5807 107.248 21.7561 106.47 21.7898C105.817 21.8227 105.163 21.7208 104.557 21.4911C103.952 21.2615 103.408 20.91 102.967 20.4622V25.8374H99.439V10.6064H102.967V11.6284C103.409 11.1809 103.952 10.8297 104.558 10.6003C105.163 10.3708 105.817 10.269 106.47 10.302C107.248 10.3354 108.011 10.5109 108.715 10.8181C109.419 11.1254 110.051 11.5584 110.573 12.0923C111.095 12.6262 111.499 13.2505 111.76 13.929C112.021 14.6076 112.134 15.3272 112.092 16.0464ZM108.564 16.0464C108.55 15.5372 108.374 15.0431 108.058 14.6258C107.743 14.2087 107.301 13.8869 106.789 13.7009C106.276 13.5148 105.715 13.4728 105.177 13.58C104.639 13.6872 104.147 13.9389 103.762 14.3035C103.378 14.6682 103.118 15.1296 103.015 15.6302C102.914 16.1307 102.973 16.6479 103.187 17.1173C103.401 17.5866 103.76 17.9871 104.218 18.2687C104.678 18.5504 105.216 18.7005 105.766 18.7005C106.144 18.7161 106.521 18.6575 106.873 18.5288C107.225 18.3999 107.543 18.2038 107.808 17.9532C108.072 17.7026 108.276 17.4032 108.406 17.0746C108.536 16.746 108.59 16.3956 108.564 16.0464Z" fill="#14142B"/>
<path d="M122.979 18.2209C122.979 20.7232 120.628 21.7893 118.089 21.7893C117.063 21.8753 116.032 21.6746 115.131 21.2129C114.229 20.7514 113.498 20.0502 113.032 19.2L116.088 17.59C116.212 17.983 116.477 18.3248 116.841 18.5584C117.204 18.792 117.643 18.9033 118.084 18.8736C118.93 18.8736 119.354 18.6341 119.354 18.2C119.354 17.0021 113.567 17.634 113.567 13.8699C113.567 11.4972 115.732 10.3014 118.178 10.3014C119.098 10.2746 120.008 10.4764 120.814 10.8858C121.621 11.2952 122.294 11.8972 122.763 12.6292L119.753 14.1304C119.621 13.8454 119.401 13.6027 119.121 13.4325C118.841 13.2623 118.513 13.172 118.178 13.1732C117.566 13.1732 117.189 13.3929 117.189 13.782C117.194 15.0228 122.979 14.1953 122.979 18.2209Z" fill="#14142B"/>
<path d="M135.868 10.606V21.486H132.34V20.4629C131.933 20.9144 131.416 21.2701 130.832 21.5008C130.247 21.7316 129.612 21.8309 128.978 21.7904C126.602 21.7904 124.583 20.2244 124.583 17.2846V10.606H128.111V16.8065C128.082 17.0657 128.113 17.3276 128.204 17.5742C128.295 17.8207 128.443 18.046 128.638 18.2343C128.833 18.4226 129.069 18.5694 129.332 18.6644C129.594 18.7594 129.876 18.8005 130.156 18.7847C131.45 18.7847 132.343 18.0891 132.343 16.5439V10.6093L135.868 10.606Z" fill="#14142B"/>
<path d="M156.099 14.8054V21.4851H152.57V15.0879C152.57 13.9998 152.006 13.3042 150.877 13.3042C149.702 13.3042 149.042 14.0658 149.042 15.3494V21.4851H145.515V15.0879C145.515 13.9998 144.951 13.3042 143.821 13.3042C142.645 13.3042 141.987 14.0658 141.987 15.3494V21.4851H138.458V10.605H141.987V11.6051C142.353 11.1614 142.833 10.8096 143.384 10.5817C143.934 10.3539 144.538 10.2572 145.139 10.3006C145.742 10.2733 146.344 10.3912 146.883 10.6427C147.423 10.8942 147.883 11.2709 148.219 11.7359C148.61 11.2494 149.128 10.8625 149.724 10.6115C150.321 10.3606 150.976 10.2536 151.629 10.3006C154.33 10.3017 156.099 12.0854 156.099 14.8054Z" fill="#14142B"/>
<path d="M159.083 10.5387C160.529 10.5387 161.702 9.4543 161.702 8.11652C161.702 6.77878 160.529 5.69434 159.083 5.69434C157.638 5.69434 156.465 6.77878 156.465 8.11652C156.465 9.4543 157.638 10.5387 159.083 10.5387Z" fill="#14142B"/>
</g>
<defs>
<clipPath id="clip0_752_1685">
<rect width="161.882" height="29.4979" fill="white"/>
</clipPath>
</defs>
</svg>
