<svg width="136" height="32" viewBox="0 0 136 32" fill="none" xmlns="http://www.w3.org/2000/svg">
<path d="M39.334 9.34655H42.7179V23.0047H39.334V9.34655ZM44.0602 17.8477C44.0602 14.4698 46.1357 12.4543 49.3391 12.4543C52.5426 12.4543 54.6181 14.4698 54.6181 17.8477C54.6181 21.2257 52.5877 23.2524 49.3391 23.2524C46.0905 23.2524 44.0602 21.2819 44.0602 17.8477ZM51.2229 17.8477C51.2229 15.9898 50.4896 14.8977 49.3391 14.8977C48.1886 14.8977 47.4667 16.0236 47.4667 17.8477C47.4667 19.6718 48.1773 20.7753 49.3391 20.7753C50.5009 20.7753 51.2229 19.7394 51.2229 17.859V17.8477ZM55.8927 23.669H59.1413C59.2959 24.0119 59.5573 24.2958 59.8865 24.4784C60.2158 24.661 60.5953 24.7325 60.9686 24.6824C62.2545 24.6824 62.9313 23.9843 62.9313 22.9709V21.0793H62.8636C62.594 21.6591 62.1565 22.1449 61.6076 22.474C61.0587 22.8032 60.4236 22.9606 59.7842 22.9259C57.314 22.9259 55.6783 21.0455 55.6783 17.8139C55.6783 14.5824 57.235 12.5443 59.8294 12.5443C60.4887 12.5186 61.1403 12.6946 61.6967 13.0487C62.2531 13.4029 62.6879 13.9184 62.9425 14.526V12.6457H66.3265V22.8921C66.3265 25.358 64.1495 26.8893 60.9348 26.8893C57.9456 26.8893 56.0845 25.5494 55.8927 23.6803V23.669ZM62.9425 17.8364C62.9425 16.1925 62.1868 15.1566 60.9911 15.1566C59.7955 15.1566 59.0623 16.1812 59.0623 17.8364C59.0623 19.4916 59.7842 20.4262 60.9911 20.4262C62.1981 20.4262 62.9425 19.5142 62.9425 17.8477V17.8364ZM67.6011 17.8364C67.6011 14.4585 69.6766 12.443 72.88 12.443C76.0835 12.443 78.1703 14.4585 78.1703 17.8364C78.1703 21.2144 76.1399 23.2411 72.88 23.2411C69.6202 23.2411 67.6011 21.2819 67.6011 17.8477V17.8364ZM74.7638 17.8364C74.7638 15.9786 74.0306 14.8864 72.88 14.8864C71.7295 14.8864 71.064 16.0236 71.064 17.859C71.064 19.6943 71.7746 20.7866 72.9252 20.7866C74.0757 20.7866 74.7638 19.7394 74.7638 17.859V17.8364ZM79.4561 10.191C79.4473 9.85002 79.54 9.51402 79.7227 9.22566C79.9054 8.93731 80.1697 8.70954 80.4822 8.57132C80.7946 8.43308 81.1412 8.39059 81.4779 8.4492C81.8145 8.50781 82.1263 8.6649 82.3734 8.90051C82.6206 9.13615 82.792 9.4398 82.8662 9.77286C82.9402 10.1058 82.9136 10.4534 82.7896 10.7714C82.6656 11.0892 82.4499 11.3633 82.1697 11.5586C81.8895 11.754 81.5575 11.8619 81.2158 11.8688C80.9893 11.8842 80.762 11.8529 80.5482 11.7765C80.3344 11.7002 80.1388 11.5805 79.9735 11.4251C79.8083 11.2697 79.677 11.0818 79.588 10.8733C79.499 10.6648 79.4541 10.4402 79.4561 10.2136V10.191ZM79.4561 12.6682H82.8401V23.0047H79.4561V12.6682ZM95.1242 17.8364C95.1242 21.2144 93.6238 23.1398 91.0522 23.1398C90.3927 23.1821 89.7358 23.0211 89.1713 22.6788C88.606 22.3365 88.1601 21.8292 87.8935 21.2257H87.8257V26.3151H84.4418V12.6457H87.8257V14.4922H87.8935C88.1477 13.8787 88.5851 13.3583 89.1464 13.0017C89.7073 12.6451 90.3651 12.4697 91.0291 12.4993C93.6238 12.5443 95.1687 14.481 95.1687 17.859L95.1242 17.8364ZM91.7402 17.8364C91.7402 16.1925 90.9838 15.1454 89.7998 15.1454C88.6153 15.1454 87.8596 16.2038 87.8483 17.8364C87.837 19.4691 88.6153 20.5163 89.7998 20.5163C90.9838 20.5163 91.7402 19.4916 91.7402 17.859V17.8364ZM100.933 12.4317C103.741 12.4317 105.445 13.7604 105.523 15.8885H102.444C102.444 15.1566 101.835 14.695 100.899 14.695C99.9624 14.695 99.5455 15.0553 99.5455 15.5845C99.5455 16.1137 99.918 16.2826 100.674 16.4402L102.839 16.8794C104.904 17.3185 105.783 18.1517 105.783 19.7169C105.783 21.8562 103.832 23.2299 100.955 23.2299C98.0789 23.2299 96.1953 21.8562 96.0487 19.7506H99.3082C99.4104 20.5163 100.019 20.9666 101.012 20.9666C102.004 20.9666 102.456 20.6402 102.456 20.0997C102.456 19.5592 102.14 19.4466 101.328 19.2777L99.3767 18.8611C97.3571 18.4445 96.2967 17.3748 96.2967 15.7985C96.3198 13.7716 98.1358 12.4543 100.933 12.4543V12.4317ZM117.074 22.9822H113.814V21.0568H113.746C113.568 21.7032 113.172 22.269 112.626 22.6602C112.081 23.0514 111.418 23.2445 110.746 23.2074C110.232 23.2366 109.718 23.1553 109.238 22.969C108.758 22.7826 108.323 22.4956 107.964 22.1274C107.605 21.7591 107.33 21.3181 107.155 20.8343C106.981 20.3505 106.914 19.835 106.956 19.3227V12.6457H110.34V18.5458C110.34 19.7731 110.972 20.4262 112.021 20.4262C112.267 20.4267 112.51 20.3747 112.734 20.2737C112.959 20.1727 113.159 20.025 113.321 19.8405C113.483 19.6561 113.604 19.4391 113.675 19.2042C113.747 18.9692 113.768 18.7217 113.736 18.4783V12.6457H117.12L117.074 22.9822ZM118.71 12.6457H121.981V14.6386H122.049C122.228 14.0008 122.615 13.4403 123.147 13.045C123.68 12.6498 124.329 12.442 124.993 12.4543C125.668 12.4003 126.338 12.602 126.872 13.0193C127.404 13.4365 127.761 14.0388 127.869 14.7062H127.937C128.141 14.0317 128.565 13.4443 129.141 13.0366C129.717 12.6289 130.412 12.424 131.118 12.4543C131.578 12.4388 132.036 12.5202 132.463 12.6931C132.89 12.866 133.274 13.1266 133.594 13.4579C133.913 13.7893 134.159 14.184 134.315 14.6162C134.472 15.0486 134.535 15.5089 134.501 15.9674V23.0047H131.118V16.8681C131.118 15.7421 130.61 15.2242 129.663 15.2242C129.451 15.2224 129.242 15.2658 129.049 15.3516C128.856 15.4375 128.683 15.5635 128.544 15.7215C128.403 15.8794 128.299 16.0656 128.237 16.2673C128.175 16.4689 128.157 16.6815 128.185 16.8906V23.0047H124.97V16.8231C124.97 15.7872 124.463 15.2242 123.538 15.2242C123.324 15.2242 123.113 15.2696 122.918 15.357C122.723 15.4446 122.549 15.5724 122.407 15.732C122.266 15.8916 122.159 16.0794 122.095 16.283C122.032 16.4866 122.012 16.7014 122.037 16.9131V23.0047H118.653L118.71 12.6457Z" fill="#14142B"/>
<path d="M29.8707 9.96624C29.2967 8.65605 28.5369 7.435 27.6147 6.34062C26.2515 4.67455 24.5504 3.31555 22.6231 2.35308C20.6958 1.39061 18.5862 0.846471 16.4331 0.756497C14.28 0.666522 12.1322 1.03274 10.1311 1.83105C8.12999 2.62937 6.32095 3.84167 4.82302 5.38819C3.32508 6.93469 2.17223 8.78034 1.44034 10.8037C0.708453 12.827 0.414115 14.9821 0.576703 17.1271C0.739292 19.2721 1.35512 21.3585 2.38366 23.2488C3.41219 25.1392 4.83011 26.7907 6.54409 28.0946C7.64388 28.9479 8.85911 29.6417 10.1536 30.1551C11.9686 30.8976 13.9111 31.28 15.8725 31.2811C19.9213 31.2722 23.8013 29.6612 26.6621 26.8012C29.5229 23.9413 31.1311 20.0657 31.134 16.024C31.137 13.9393 30.7068 11.8766 29.8707 9.96624ZM15.8612 3.8522C17.6226 3.85201 19.3627 4.23631 20.9597 4.97818C20.5703 5.14614 20.1608 5.26345 19.7415 5.32724C18.3615 5.52664 17.0831 6.16618 16.0971 7.15039C15.1112 8.13461 14.4705 9.41069 14.2707 10.7883C14.1831 11.5608 13.8311 12.2795 13.2742 12.8231C12.7173 13.3667 11.9896 13.7019 11.2139 13.7721C9.834 13.9715 8.55558 14.611 7.56962 15.5952C6.58367 16.5795 5.94299 17.8556 5.74323 19.2331C5.6756 19.9677 5.36163 20.658 4.85213 21.1923C3.97304 19.3382 3.57814 17.2921 3.70416 15.2446C3.83017 13.1971 4.47302 11.2147 5.57288 9.4818C6.67272 7.749 8.19384 6.32206 9.99462 5.33382C11.7955 4.34558 13.8175 3.82814 15.8725 3.82968L15.8612 3.8522ZM6.53282 23.906C6.66817 23.7821 6.80353 23.6694 6.93889 23.5343C7.9424 22.5631 8.58655 21.2811 8.76622 19.8974C8.83906 19.1197 9.18697 18.3932 9.7476 17.8481C10.287 17.2876 11.0131 16.9432 11.7892 16.8798C13.1692 16.6804 14.4475 16.0408 15.4335 15.0566C16.4194 14.0725 17.0601 12.7963 17.2599 11.4188C17.3087 10.6053 17.6584 9.83886 18.2412 9.2682C18.794 8.71853 19.5271 8.38664 20.3055 8.3336C21.5732 8.15949 22.7556 7.59689 23.6894 6.72345C24.7527 7.60405 25.6536 8.66341 26.3514 9.85371C26.3086 9.91149 26.2593 9.96438 26.2048 10.0113C25.6664 10.5768 24.9412 10.9287 24.1632 11.0022C22.7817 11.1981 21.5015 11.8366 20.5148 12.8214C19.5282 13.8062 18.8887 15.0843 18.6924 16.4632C18.6129 17.2383 18.2674 17.9622 17.7144 18.5122C17.1615 19.0622 16.435 19.4044 15.6582 19.4808C14.2742 19.6787 12.9911 20.317 11.9993 21.3008C11.0077 22.2846 10.3604 23.5615 10.1536 24.9418C10.0929 25.4921 9.9036 26.0206 9.60093 26.4845C8.44361 25.7985 7.4071 24.9274 6.53282 23.906ZM15.8612 28.2522C14.7166 28.2534 13.5776 28.0942 12.4773 27.7793C12.8536 27.079 13.0983 26.3157 13.1992 25.5273C13.2783 24.7539 13.6221 24.0314 14.1728 23.4816C14.7235 22.9319 15.4473 22.5886 16.2222 22.5097C17.6041 22.3126 18.8851 21.674 19.8733 20.6896C20.8615 19.7052 21.5038 18.4278 21.7041 17.0487C21.7832 16.2753 22.1271 15.5527 22.6778 15.003C23.2285 14.4533 23.9523 14.11 24.7272 14.031C25.7672 13.896 26.7584 13.5095 27.6147 12.9051C28.0903 14.7043 28.1465 16.5884 27.7794 18.4126C27.4122 20.237 26.6313 21.9531 25.4966 23.4294C24.3618 24.9056 22.9033 26.1029 21.2331 26.9291C19.5629 27.7553 17.7253 28.1887 15.8612 28.1959V28.2522Z" fill="#14142B"/>
</svg>
