<svg width="154" height="32" viewBox="0 0 154 32" fill="none" xmlns="http://www.w3.org/2000/svg">
<g clip-path="url(#clip0_752_1671)">
<path d="M49.6325 25.4926C48.8576 25.5344 48.0911 25.3154 47.4567 24.871C47.1916 24.6757 46.9783 24.4192 46.8353 24.1235C46.6924 23.8279 46.6238 23.5021 46.6359 23.1744V11.1685C46.6295 11.1176 46.635 11.066 46.6517 11.0176C46.6684 10.9692 46.6961 10.9252 46.7325 10.8889C46.769 10.8527 46.8132 10.8253 46.862 10.8085C46.9107 10.7919 46.9626 10.7865 47.0137 10.7928H49.2026C49.4501 10.7928 49.5674 10.9224 49.5674 11.1685V22.2418C49.5674 22.734 49.7889 22.9801 50.2449 22.9801C50.4382 22.988 50.6316 22.9662 50.8182 22.9154C51.0787 22.9154 51.2221 22.993 51.2351 23.2262L51.4305 24.8451C51.4399 24.8922 51.4391 24.941 51.428 24.9877C51.4168 25.0346 51.3958 25.0785 51.3661 25.1166C51.3365 25.1545 51.299 25.1859 51.2562 25.2083C51.2134 25.2307 51.1662 25.2438 51.1179 25.2466C50.6384 25.404 50.1374 25.487 49.6325 25.4926Z" fill="#14142B"/>
<path d="M61.9456 24.1069C60.8457 25.0103 59.4636 25.5044 58.0369 25.5044C56.6102 25.5044 55.2281 25.0103 54.1282 24.1069C53.1615 23.1368 52.6191 21.8266 52.6191 20.4611C52.6191 19.0956 53.1615 17.7854 54.1282 16.8153C55.2302 15.9167 56.6115 15.4255 58.0369 15.4255C59.4623 15.4255 60.8437 15.9167 61.9456 16.8153C62.89 17.7944 63.4173 19.0982 63.4173 20.4547C63.4173 21.8111 62.89 23.1149 61.9456 24.094V24.1069ZM56.1868 22.3973C56.6972 22.857 57.3612 23.1115 58.0499 23.1115C58.7386 23.1115 59.4027 22.857 59.9131 22.3973C60.375 21.8694 60.6295 21.1932 60.6295 20.4935C60.6295 19.7937 60.375 19.1176 59.9131 18.5896C59.4027 18.1301 58.7386 17.8755 58.0499 17.8755C57.3612 17.8755 56.6972 18.1301 56.1868 18.5896C55.7248 19.1176 55.4704 19.7937 55.4704 20.4935C55.4704 21.1932 55.7248 21.8694 56.1868 22.3973Z" fill="#14142B"/>
<path d="M75.4695 15.7527C75.717 15.7527 75.8343 15.8822 75.8343 16.1283V25.4144C75.857 26.0412 75.739 26.6651 75.4889 27.2409C75.2388 27.8167 74.8626 28.3297 74.3881 28.7429C73.3345 29.636 71.9797 30.0987 70.5966 30.0381C69.3472 30.0818 68.1146 29.7427 67.0657 29.0668C66.6177 28.7743 66.2351 28.3935 65.9415 27.9479C65.6478 27.5024 65.4495 27.0015 65.3589 26.4765C65.3589 26.2174 65.3589 26.1009 65.7107 26.1009H67.8996C67.9925 26.1041 68.0825 26.1338 68.1588 26.1867C68.2351 26.2395 68.2944 26.3132 68.3295 26.3988C68.4715 26.7922 68.7545 27.1196 69.1243 27.3183C69.575 27.5494 70.0765 27.6652 70.5836 27.6551C70.8894 27.6718 71.1957 27.6276 71.4842 27.5253C71.7728 27.423 72.038 27.2646 72.2643 27.0593C72.4711 26.8445 72.6319 26.5904 72.7371 26.3121C72.8424 26.0339 72.8898 25.7373 72.8766 25.4403V24.6244C72.0929 25.1974 71.1391 25.4937 70.1667 25.4663C69.486 25.4909 68.8074 25.3785 68.1715 25.1359C67.5356 24.8933 66.9557 24.5256 66.4664 24.0545C65.5271 23.0885 65.002 21.7976 65.002 20.4541C65.002 19.1105 65.5271 17.8196 66.4664 16.8536C66.9581 16.3868 67.5387 16.0225 68.1742 15.7823C68.8097 15.5421 69.4871 15.4307 70.1667 15.4549C71.1672 15.4286 72.1467 15.744 72.9418 16.3485V16.1412C72.9358 16.0917 72.9411 16.0413 72.9571 15.9939C72.9731 15.9466 72.9996 15.9033 73.0345 15.8674C73.0694 15.8314 73.1119 15.8036 73.159 15.786C73.2061 15.7684 73.2565 15.7615 73.3067 15.7657L75.4695 15.7527ZM70.4142 23.1609C70.7499 23.1712 71.0837 23.1082 71.3922 22.9761C71.7006 22.8441 71.9761 22.6463 72.1992 22.3968C72.6323 21.8408 72.8674 21.1574 72.8674 20.4541C72.8674 19.7508 72.6323 19.0675 72.1992 18.5114C71.9768 18.2652 71.7031 18.0704 71.3969 17.9407C71.0908 17.8109 70.7598 17.7493 70.4272 17.7602C70.0877 17.7496 69.7498 17.8125 69.4372 17.9444C69.1245 18.0763 68.8443 18.2742 68.6162 18.5243C68.1363 19.0562 67.8839 19.7531 67.9126 20.467C67.8891 21.1739 68.1358 21.8635 68.6031 22.3968C68.8318 22.6462 69.1121 22.8437 69.4247 22.9756C69.7372 23.1074 70.0748 23.1707 70.4142 23.1609Z" fill="#14142B"/>
<path d="M87.0775 24.1061C85.9755 25.0047 84.5942 25.4959 83.1688 25.4959C81.7434 25.4959 80.3621 25.0047 79.2601 24.1061C78.3148 23.1249 77.7871 21.8189 77.7871 20.4603C77.7871 19.1018 78.3148 17.7956 79.2601 16.8145C80.3631 15.9182 81.7441 15.4285 83.1688 15.4285C84.5935 15.4285 85.9745 15.9182 87.0775 16.8145C88.0219 17.7935 88.5492 19.0974 88.5492 20.4538C88.5492 21.8102 88.0219 23.1141 87.0775 24.0931V24.1061ZM81.3057 22.3965C81.5555 22.6327 81.8499 22.8173 82.1719 22.9396C82.494 23.0618 82.8372 23.1194 83.1818 23.1089C83.5243 23.1177 83.865 23.0593 84.1847 22.9371C84.5044 22.8148 84.7968 22.6312 85.045 22.3965C85.4994 21.865 85.7489 21.1902 85.7489 20.4926C85.7489 19.7951 85.4994 19.1203 85.045 18.5888C84.7968 18.3542 84.5044 18.1706 84.1847 18.0482C83.865 17.926 83.5243 17.8677 83.1818 17.8765C82.8372 17.8659 82.494 17.9235 82.1719 18.0458C81.8499 18.1681 81.5555 18.3526 81.3057 18.5888C80.8513 19.1203 80.6018 19.7951 80.6018 20.4926C80.6018 21.1902 80.8513 21.865 81.3057 22.3965Z" fill="#14142B"/>
<path d="M93.254 13.5516C92.9096 13.8512 92.4674 14.0164 92.0097 14.0164C91.552 14.0164 91.1099 13.8512 90.7654 13.5516C90.6093 13.4051 90.4849 13.2284 90.3999 13.0324C90.3149 12.8364 90.271 12.6252 90.271 12.4118C90.271 12.1984 90.3149 11.9872 90.3999 11.7912C90.4849 11.5952 90.6093 11.4186 90.7654 11.2721C91.1134 10.9799 91.5542 10.8196 92.0097 10.8196C92.4653 10.8196 92.906 10.9799 93.254 11.2721C93.4102 11.4186 93.5346 11.5952 93.6196 11.7912C93.7046 11.9872 93.7485 12.1984 93.7485 12.4118C93.7485 12.6252 93.7046 12.8364 93.6196 13.0324C93.5346 13.2284 93.4102 13.4051 93.254 13.5516ZM93.5277 25.4927C92.7532 25.5305 91.9879 25.3119 91.3518 24.871C91.0907 24.6728 90.8812 24.4153 90.7407 24.1202C90.6001 23.8251 90.5327 23.5008 90.5439 23.1744V16.1289C90.5376 16.078 90.5431 16.0264 90.5598 15.978C90.5765 15.9296 90.6042 15.8856 90.6406 15.8494C90.6771 15.8131 90.7214 15.7857 90.7701 15.7689C90.8188 15.7523 90.8706 15.747 90.9218 15.7533H93.1107C93.3583 15.7533 93.4755 15.8828 93.4755 16.1289V22.2419C93.4755 22.734 93.6971 22.9801 94.14 22.9801C94.3376 22.9872 94.5351 22.9653 94.7263 22.9154C94.9869 22.9154 95.1302 22.9931 95.1432 23.2262L95.3387 24.8452C95.348 24.8924 95.3471 24.941 95.3361 24.9878C95.3249 25.0346 95.3039 25.0786 95.2742 25.1166C95.2446 25.1547 95.207 25.1859 95.1643 25.2083C95.1215 25.2308 95.0743 25.2438 95.026 25.2466C94.5423 25.405 94.0369 25.488 93.5277 25.4927Z" fill="#14142B"/>
<path d="M103.391 15.4417C104.075 15.4148 104.757 15.5249 105.397 15.7651C106.038 16.0054 106.622 16.3711 107.118 16.8405C108.039 17.8234 108.551 19.1169 108.551 20.4604C108.551 21.8038 108.039 23.0974 107.118 24.0803C106.625 24.5538 106.041 24.9231 105.4 25.1658C104.76 25.4083 104.076 25.5194 103.391 25.492C102.416 25.5135 101.459 25.218 100.668 24.6502V29.3256C100.668 29.5716 100.538 29.6883 100.29 29.6883H98.1015C98.0515 29.6975 98 29.6946 97.9515 29.6796C97.903 29.6647 97.8588 29.6382 97.8229 29.6025C97.7869 29.5668 97.7603 29.5229 97.7453 29.4746C97.7303 29.4264 97.7273 29.3752 97.7367 29.3256V18.7055C97.7519 18.6016 97.7427 18.4956 97.7094 18.3959C97.6763 18.2963 97.62 18.2057 97.5454 18.1314C97.4707 18.0572 97.3796 18.0014 97.2793 17.9683C97.179 17.9353 97.0724 17.9261 96.9679 17.9413H96.5379C96.2514 17.9413 96.108 17.8378 96.108 17.6305V16.1022C96.1013 16.0077 96.1273 15.9136 96.1819 15.8359C96.2364 15.7581 96.3161 15.7013 96.4076 15.6749C96.8583 15.512 97.3353 15.433 97.8148 15.4417C98.293 15.3997 98.7729 15.5004 99.193 15.7311C99.6131 15.9619 99.9544 16.3121 100.173 16.7369C100.593 16.3149 101.095 15.9824 101.648 15.7597C102.201 15.537 102.794 15.4288 103.391 15.4417ZM101.359 22.3966C101.591 22.638 101.87 22.8301 102.179 22.9613C102.488 23.0925 102.821 23.1601 103.157 23.1601C103.493 23.1601 103.826 23.0925 104.134 22.9613C104.443 22.8301 104.723 22.638 104.955 22.3966C105.444 21.8541 105.701 21.1432 105.671 20.4151C105.705 19.6863 105.447 18.9739 104.955 18.4335C104.723 18.1921 104.443 18 104.134 17.8688C103.826 17.7376 103.493 17.67 103.157 17.67C102.821 17.67 102.488 17.7376 102.179 17.8688C101.87 18 101.591 18.1921 101.359 18.4335C100.885 18.9834 100.638 19.6915 100.668 20.4151C100.642 21.1381 100.888 21.8448 101.359 22.3966Z" fill="#14142B"/>
<path d="M114.699 25.4918C113.53 25.5396 112.37 25.2615 111.351 24.6889C110.942 24.4441 110.594 24.1109 110.332 23.714C110.071 23.3172 109.902 22.8669 109.839 22.3965C109.839 22.1374 109.931 22.008 110.217 22.008H112.133C112.224 22.0115 112.313 22.04 112.388 22.0902C112.464 22.1405 112.524 22.2106 112.562 22.2929C112.836 22.9922 113.552 23.342 114.699 23.342C115.1 23.3601 115.497 23.28 115.859 23.1088C115.983 23.0528 116.091 22.9643 116.169 22.8525C116.247 22.7407 116.293 22.61 116.302 22.4742C116.302 22.1374 116.094 21.9043 115.677 21.7489C115.182 21.5853 114.67 21.4767 114.152 21.4252C113.538 21.356 112.929 21.2478 112.328 21.1013C111.744 20.9699 111.213 20.6677 110.803 20.2336C110.563 19.9385 110.385 19.5973 110.282 19.2311C110.179 18.865 110.153 18.4817 110.206 18.1051C110.258 17.7285 110.389 17.3667 110.588 17.0422C110.787 16.7177 111.051 16.4374 111.364 16.2187C112.303 15.624 113.405 15.3343 114.517 15.3898C115.594 15.3536 116.659 15.6183 117.592 16.1539C117.967 16.3655 118.291 16.658 118.539 17.0097C118.787 17.3615 118.953 17.7637 119.025 18.1873C119.025 18.4463 118.908 18.5758 118.673 18.5758H116.745C116.664 18.5806 116.583 18.561 116.513 18.5194C116.444 18.4778 116.388 18.4161 116.354 18.3427C116.225 18.0359 115.982 17.7902 115.677 17.6563C115.331 17.4767 114.946 17.3876 114.556 17.3973C114.174 17.3766 113.793 17.4523 113.448 17.6175C113.327 17.664 113.223 17.7456 113.149 17.8518C113.074 17.958 113.033 18.0838 113.032 18.2132C113.04 18.3903 113.105 18.5601 113.218 18.6976C113.33 18.8351 113.484 18.9332 113.657 18.9774C114.157 19.1647 114.678 19.2951 115.207 19.3659C115.817 19.4456 116.421 19.558 117.019 19.7026C117.603 19.8339 118.134 20.1362 118.543 20.5703C118.762 20.8095 118.931 21.0895 119.041 21.394C119.15 21.6985 119.198 22.0217 119.181 22.3447C119.193 22.7924 119.087 23.2353 118.875 23.6303C118.662 24.0253 118.35 24.3587 117.969 24.5982C116.996 25.2194 115.855 25.5312 114.699 25.4918Z" fill="#14142B"/>
<path d="M132.954 24.8449C132.961 24.8908 132.959 24.9379 132.949 24.9831C132.937 25.0283 132.917 25.0708 132.889 25.1083C132.861 25.1457 132.826 25.1771 132.785 25.2009C132.745 25.2245 132.701 25.24 132.654 25.2463C132.178 25.4007 131.682 25.4836 131.182 25.4924C130.687 25.5434 130.186 25.4665 129.73 25.269C129.274 25.0716 128.876 24.7605 128.576 24.3657C127.656 25.1522 126.466 25.5558 125.254 25.4924C124.69 25.5182 124.129 25.4266 123.604 25.2237C123.079 25.0206 122.602 24.7108 122.205 24.3139C121.81 23.8979 121.504 23.4071 121.305 22.8708C121.105 22.3344 121.018 21.7636 121.046 21.1925V16.1286C121.046 15.8825 121.162 15.7529 121.41 15.7529H123.599C123.846 15.7529 123.964 15.8825 123.964 16.1286V20.804C123.94 21.3865 124.14 21.9562 124.524 22.3971C124.715 22.599 124.949 22.7578 125.207 22.8628C125.466 22.9678 125.743 23.0165 126.022 23.0058C126.308 23.0182 126.593 22.9742 126.861 22.8764C127.13 22.7786 127.376 22.6289 127.586 22.4359C127.784 22.2325 127.939 21.9908 128.04 21.7257C128.14 21.4606 128.186 21.1778 128.172 20.8947V16.1286C128.172 15.8825 128.289 15.7529 128.537 15.7529H130.752C131 15.7529 131.116 15.8825 131.116 16.1286V22.2287C131.116 22.7338 131.338 22.9799 131.769 22.9799C131.97 22.9876 132.172 22.9658 132.367 22.915C132.417 22.9013 132.469 22.8989 132.519 22.9079C132.57 22.9169 132.617 22.937 132.658 22.967C132.7 22.9969 132.734 23.0357 132.758 23.0806C132.782 23.1254 132.796 23.1751 132.798 23.226L132.954 24.8449Z" fill="#14142B"/>
<path d="M153.657 24.8449C153.668 24.8913 153.669 24.9397 153.66 24.9865C153.651 25.0334 153.631 25.0776 153.602 25.116C153.573 25.1544 153.537 25.186 153.495 25.2085C153.453 25.2311 153.405 25.244 153.358 25.2465C152.873 25.4029 152.368 25.4859 151.859 25.4924C151.085 25.5322 150.319 25.3134 149.683 24.8708C149.408 24.6812 149.185 24.4272 149.032 24.1312C148.881 23.8353 148.804 23.5066 148.811 23.1742V20.1306C148.837 19.5498 148.642 18.9804 148.262 18.5376C148.08 18.3352 147.855 18.1756 147.602 18.0703C147.35 17.965 147.077 17.9168 146.804 17.9289C146.557 17.9196 146.311 17.9661 146.086 18.0648C145.86 18.1635 145.66 18.312 145.501 18.4988C145.156 18.9328 144.981 19.4751 145.006 20.027V24.8061C145.006 25.0522 144.888 25.1816 144.641 25.1816H142.438C142.388 25.1879 142.336 25.1826 142.287 25.1659C142.238 25.1493 142.194 25.1218 142.158 25.0856C142.121 25.0494 142.094 25.0053 142.077 24.9569C142.06 24.9085 142.054 24.8569 142.061 24.8061V20.1306C142.089 19.5562 141.909 18.9908 141.553 18.5376C141.394 18.3473 141.195 18.194 140.969 18.0888C140.744 17.9836 140.499 17.929 140.25 17.9289C139.984 17.9182 139.719 17.9635 139.472 18.0616C139.225 18.1599 139.002 18.3089 138.817 18.4988C138.445 18.9189 138.253 19.4677 138.283 20.027V24.8061C138.289 24.8569 138.284 24.9085 138.267 24.9569C138.249 25.0053 138.223 25.0494 138.185 25.0856C138.149 25.1218 138.105 25.1493 138.056 25.1659C138.008 25.1826 137.956 25.1879 137.905 25.1816H135.781C135.534 25.1816 135.416 25.0522 135.416 24.8061V18.706C135.431 18.6021 135.422 18.4961 135.389 18.3964C135.356 18.2968 135.299 18.2061 135.225 18.1319C135.151 18.0577 135.059 18.0019 134.959 17.9688C134.859 17.9358 134.752 17.9266 134.648 17.9419H134.217C133.931 17.9419 133.787 17.8382 133.787 17.631V16.1027C133.781 16.0082 133.807 15.9141 133.861 15.8364C133.916 15.7587 133.996 15.7018 134.087 15.6754C134.537 15.5125 135.014 15.4335 135.494 15.4422C135.955 15.4033 136.416 15.4944 136.827 15.7053C137.237 15.9161 137.58 16.2379 137.814 16.6337C138.253 16.2196 138.774 15.9001 139.344 15.6951C139.912 15.4901 140.518 15.404 141.123 15.4422C141.71 15.4138 142.296 15.5232 142.832 15.7618C143.368 16.0002 143.841 16.3611 144.211 16.8151C144.642 16.3492 145.172 15.9844 145.762 15.747C146.353 15.5096 146.989 15.4054 147.624 15.4422C148.193 15.4157 148.761 15.5069 149.293 15.7097C149.824 15.9126 150.307 16.2228 150.712 16.6208C151.108 17.0359 151.415 17.5265 151.614 18.0631C151.813 18.5996 151.901 19.1709 151.872 19.742V22.2417C151.872 22.7338 152.093 22.9799 152.51 22.9799C152.712 22.9893 152.915 22.9674 153.11 22.9152C153.379 22.9152 153.522 23.0187 153.539 23.226L153.657 24.8449Z" fill="#14142B"/>
<path d="M0.87794 14.0695C1.83918 10.229 4.0654 6.81858 7.20212 4.38126C10.3388 1.94394 14.2057 0.619873 18.187 0.619873C22.1684 0.619873 26.0352 1.94394 29.1719 4.38126C32.3086 6.81858 34.5349 10.229 35.4962 14.0695H33.9327C31.2952 14.0309 28.7117 14.8145 26.5451 16.3101C26.4201 16.4001 26.2896 16.4823 26.1543 16.5562H25.9719C25.8366 16.4823 25.706 16.4001 25.581 16.3101C23.3953 14.849 20.8211 14.0688 18.187 14.0688C15.553 14.0688 12.9788 14.849 10.7931 16.3101C10.668 16.4001 10.5375 16.4823 10.4022 16.5562H10.2198C10.0845 16.4823 9.95394 16.4001 9.8289 16.3101C7.66235 14.8145 5.07893 14.0309 2.44142 14.0695H0.87794ZM31.1184 22.1901C31.9209 21.5687 32.9157 21.2437 33.9327 21.2705H36.0303V17.1131H33.9327C32.1414 17.0915 30.3912 17.6457 28.9426 18.6932C28.1273 19.2906 27.1411 19.6129 26.1282 19.6129C25.1155 19.6129 24.1292 19.2906 23.314 18.6932C21.8285 17.6654 20.062 17.1143 18.2522 17.1143C16.4423 17.1143 14.6758 17.6654 13.1904 18.6932C12.3751 19.2906 11.3889 19.6129 10.3762 19.6129C9.36329 19.6129 8.37707 19.2906 7.56185 18.6932C6.0953 17.6323 4.31995 17.0775 2.50657 17.1131H0.34375V21.2705H2.44142C3.45835 21.2437 4.4531 21.5687 5.2557 22.1901C6.73842 23.2186 8.50293 23.77 10.311 23.77C12.119 23.77 13.8836 23.2186 15.3663 22.1901C16.1699 21.5706 17.1639 21.2458 18.1805 21.2705C19.1977 21.2415 20.1932 21.5668 20.9948 22.1901C22.4802 23.2179 24.2467 23.7689 26.0566 23.7689C27.8664 23.7689 29.6329 23.2179 31.1184 22.1901ZM31.1184 29.6242C31.9209 29.0029 32.9157 28.6778 33.9327 28.7046H36.0303V24.5472H33.9327C32.1414 24.5256 30.3912 25.0799 28.9426 26.1273C28.1273 26.7248 27.1411 27.047 26.1282 27.047C25.1155 27.047 24.1292 26.7248 23.314 26.1273C21.8285 25.0994 20.062 24.5485 18.2522 24.5485C16.4423 24.5485 14.6758 25.0994 13.1904 26.1273C12.3751 26.7248 11.3889 27.047 10.3762 27.047C9.36329 27.047 8.37707 26.7248 7.56185 26.1273C6.0953 25.0664 4.31995 24.5116 2.50657 24.5472H0.34375V28.7046H2.44142C3.45835 28.6778 4.4531 29.0029 5.2557 29.6242C6.73842 30.6527 8.50293 31.2041 10.311 31.2041C12.119 31.2041 13.8836 30.6527 15.3663 29.6242C16.1699 29.0047 17.1639 28.68 18.1805 28.7046C19.1977 28.6756 20.1932 29.0009 20.9948 29.6242C22.4802 30.652 24.2467 31.203 26.0566 31.203C27.8664 31.203 29.6329 30.652 31.1184 29.6242Z" fill="#14142B"/>
</g>
<defs>
<clipPath id="clip0_752_1671">
<rect width="153.806" height="32" fill="white"/>
</clipPath>
</defs>
</svg>
